<svg xmlns="http://www.w3.org/2000/svg" xmlns:xlink="http://www.w3.org/1999/xlink" width="500" zoomAndPan="magnify" viewBox="0 0 375 374.999991" height="500" preserveAspectRatio="xMidYMid meet" version="1.0"><defs><clipPath id="6241be1b4e"><path d="M 187.5 0 C 83.945312 0 0 83.945312 0 187.5 C 0 291.054688 83.945312 375 187.5 375 C 291.054688 375 375 291.054688 375 187.5 C 375 83.945312 291.054688 0 187.5 0 Z M 187.5 0 " clip-rule="nonzero"/></clipPath><clipPath id="251c58e872"><path d="M 0 0 L 375 0 L 375 375 L 0 375 Z M 0 0 " clip-rule="nonzero"/></clipPath><clipPath id="f75519ba90"><path d="M 187.5 0 C 83.945312 0 0 83.945312 0 187.5 C 0 291.054688 83.945312 375 187.5 375 C 291.054688 375 375 291.054688 375 187.5 C 375 83.945312 291.054688 0 187.5 0 Z M 187.5 0 " clip-rule="nonzero"/></clipPath><clipPath id="d5bc921544"><rect x="0" width="375" y="0" height="375"/></clipPath><clipPath id="87d07f059c"><path d="M 37.5 40.804688 L 330 40.804688 L 330 299.554688 L 37.5 299.554688 Z M 37.5 40.804688 " clip-rule="nonzero"/></clipPath></defs><g clip-path="url(#6241be1b4e)"><g transform="matrix(1, 0, 0, 1, 0, 0)"><g clip-path="url(#d5bc921544)"><g clip-path="url(#251c58e872)"><g clip-path="url(#f75519ba90)"><rect x="-82.5" width="540" fill="#d9d9d9" height="539.999987" y="-82.499998" fill-opacity="1"/></g></g></g></g></g><g clip-path="url(#87d07f059c)"><path fill="#000000" d="M 107.390625 40.835938 C 113.898438 47.316406 113.539062 54.511719 111.570312 63.363281 L 132.886719 47.097656 C 136.269531 49.550781 136.578125 52.742188 136.578125 55.605469 C 136.578125 63.351562 136.109375 71.085938 135.667969 78.820312 C 135.3125 85.265625 135.914062 91.257812 139.886719 96.832031 C 145.449219 104.433594 149.71875 112.699219 152.691406 121.632812 C 154.117188 126.089844 157.402344 129.148438 161.09375 131.824219 C 169.703125 138.0625 178.398438 144.101562 186.714844 150.632812 C 200.039062 161.3125 211.589844 173.644531 221.375 187.625 C 230.148438 199.902344 237.859375 212.855469 241.449219 227.652344 C 243.640625 236.664062 244.660156 245.96875 246.171875 255.152344 C 246.726562 258.554688 247.207031 261.980469 247.773438 265.785156 C 257.613281 260.972656 267.847656 261.390625 277.957031 262.101562 C 285.914062 262.703125 293.359375 265.785156 300.320312 269.773438 C 308.855469 274.675781 316.675781 280.523438 323.789062 287.320312 C 325.683594 289.125 327.589844 290.890625 330.0625 293.210938 C 328.082031 294.144531 326.59375 295.289062 324.96875 295.546875 C 316.148438 296.921875 307.332031 298.613281 298.4375 299.230469 C 288.597656 299.855469 278.757812 299.316406 268.917969 299.386719 C 260.296875 299.542969 251.933594 298.152344 243.824219 295.226562 C 242.070312 294.730469 240.355469 294.84375 238.683594 295.570312 C 233.480469 297.753906 228.140625 298.171875 222.558594 298.222656 C 197.957031 298.46875 173.453125 298.972656 148.902344 299.375 C 147.464844 299.375 146.023438 299.375 144.597656 299.375 C 143.976562 299.402344 143.371094 299.332031 142.773438 299.160156 C 142.175781 298.992188 141.621094 298.730469 141.109375 298.378906 C 140.597656 298.027344 140.15625 297.605469 139.78125 297.109375 C 139.410156 296.613281 139.125 296.074219 138.929688 295.484375 C 138.699219 294.90625 138.558594 294.308594 138.511719 293.691406 C 138.460938 293.070312 138.5 292.457031 138.632812 291.851562 C 138.765625 291.246094 138.984375 290.671875 139.289062 290.128906 C 139.589844 289.585938 139.96875 289.101562 140.417969 288.671875 C 145.066406 284.214844 150.453125 281.09375 157.023438 280.492188 C 158.78125 280.332031 160.578125 280.492188 163.726562 280.492188 C 157.109375 274.957031 151.574219 269.703125 149.972656 262.394531 C 148.4375 255.410156 148.449219 248.082031 147.660156 239.570312 C 146.617188 242.703125 145.988281 244.703125 145.300781 246.691406 C 140.785156 259.695312 136.6875 272.867188 131.609375 285.636719 C 127.722656 295.386719 126.6875 300.1875 111.167969 299.460938 C 108.089844 299.316406 105.015625 299.460938 101.941406 299.460938 C 97.132812 299.316406 94.5625 295.777344 95.914062 291.285156 C 96.136719 290.441406 96.460938 289.640625 96.898438 288.882812 C 97.332031 288.125 97.859375 287.4375 98.476562 286.820312 C 99.09375 286.203125 99.785156 285.679688 100.542969 285.242188 C 101.300781 284.808594 102.105469 284.484375 102.949219 284.261719 C 105.300781 283.636719 107.683594 283.144531 110.660156 282.457031 C 111.769531 276.171875 112.851562 269.824219 114.007812 263.476562 C 116.246094 251.101562 115.125 238.613281 115.238281 226.175781 C 115.238281 219.3125 113.441406 213.089844 108.175781 207.957031 C 95.335938 194.453125 98.335938 173.078125 98.335938 155.9375 C 98.335938 153.738281 98.335938 151.554688 98.335938 148.570312 C 94.585938 148.570312 91.300781 148.078125 88.226562 148.65625 C 79.777344 150.105469 71.300781 151.332031 62.726562 150.71875 C 57.09375 150.289062 51.511719 149.050781 45.925781 148.054688 C 44.738281 147.746094 43.617188 147.277344 42.566406 146.644531 C 36.269531 143.351562 35.753906 139.964844 41.683594 136.257812 C 44.257812 134.6875 46.691406 132.929688 48.988281 130.980469 C 51.285156 129.027344 53.414062 126.910156 55.375 124.621094 C 57.335938 122.335938 59.101562 119.90625 60.679688 117.339844 C 62.253906 114.773438 63.617188 112.101562 64.769531 109.320312 C 68.085938 101.53125 72.777344 94.691406 78.851562 88.789062 C 81.121094 86.445312 82.917969 83.777344 84.242188 80.796875 C 87.402344 73.996094 89.8125 66.8125 93.246094 60.160156 C 96.109375 54.585938 99.921875 49.488281 103.492188 44.296875 C 104.316406 43.007812 105.828125 42.171875 107.390625 40.835938 Z M 107.390625 40.835938 " fill-opacity="1" fill-rule="nonzero"/></g></svg>