<svg xmlns="http://www.w3.org/2000/svg" xmlns:xlink="http://www.w3.org/1999/xlink" width="500" zoomAndPan="magnify" viewBox="0 0 375 374.999991" height="500" preserveAspectRatio="xMidYMid meet" version="1.0"><defs><clipPath id="b1592221fa"><path d="M 187.5 0 C 83.945312 0 0 83.945312 0 187.5 C 0 291.054688 83.945312 375 187.5 375 C 291.054688 375 375 291.054688 375 187.5 C 375 83.945312 291.054688 0 187.5 0 Z M 187.5 0 " clip-rule="nonzero"/></clipPath><clipPath id="016833d8cf"><path d="M 0 0 L 375 0 L 375 375 L 0 375 Z M 0 0 " clip-rule="nonzero"/></clipPath><clipPath id="db7c7656ef"><path d="M 187.5 0 C 83.945312 0 0 83.945312 0 187.5 C 0 291.054688 83.945312 375 187.5 375 C 291.054688 375 375 291.054688 375 187.5 C 375 83.945312 291.054688 0 187.5 0 Z M 187.5 0 " clip-rule="nonzero"/></clipPath><clipPath id="5dcfc70072"><rect x="0" width="375" y="0" height="375"/></clipPath><clipPath id="44881b3171"><path d="M 50.652344 20.28125 L 324.402344 20.28125 L 324.402344 324.03125 L 50.652344 324.03125 Z M 50.652344 20.28125 " clip-rule="nonzero"/></clipPath></defs><g clip-path="url(#b1592221fa)"><g transform="matrix(1, 0, 0, 1, 0, 0)"><g clip-path="url(#5dcfc70072)"><g clip-path="url(#016833d8cf)"><g clip-path="url(#db7c7656ef)"><rect x="-82.5" width="540" fill="#d9d9d9" height="539.999987" y="-82.499998" fill-opacity="1"/></g></g></g></g></g><g clip-path="url(#44881b3171)"><path fill="#000000" d="M 187.207031 20.28125 L 50.671875 111.183594 L 58.683594 123.027344 L 82.722656 107.023438 L 82.722656 324.03125 L 292.015625 324.03125 L 292.015625 282.421875 L 277.59375 282.421875 L 277.59375 309.949219 L 203.875 309.949219 L 203.875 291.386719 L 178.554688 291.386719 L 178.554688 273.460938 L 153.234375 273.460938 L 153.234375 255.535156 L 127.914062 255.535156 L 127.914062 237.613281 L 97.464844 237.613281 L 97.464844 211.6875 L 277.914062 211.6875 L 277.914062 239.53125 L 292.335938 239.53125 L 292.335938 107.34375 L 316.375 123.347656 L 324.386719 111.503906 Z M 201.3125 197.921875 L 173.105469 197.921875 L 173.105469 139.351562 L 201.3125 139.351562 Z M 277.273438 197.921875 L 215.734375 197.921875 L 215.734375 124.945312 L 158.683594 124.945312 L 158.683594 197.921875 L 97.144531 197.921875 L 97.144531 97.742188 L 187.207031 37.566406 L 277.273438 97.742188 Z M 277.273438 197.921875 " fill-opacity="1" fill-rule="nonzero"/></g><path fill="#000000" d="M 258.683594 237.613281 L 248.425781 227.371094 L 214.773438 260.976562 L 248.425781 294.90625 L 258.683594 284.664062 L 242.335938 268.339844 L 309.964844 268.339844 L 309.964844 253.9375 L 242.335938 253.9375 Z M 258.683594 237.613281 " fill-opacity="1" fill-rule="nonzero"/></svg>