<svg xmlns="http://www.w3.org/2000/svg" xmlns:xlink="http://www.w3.org/1999/xlink" width="500" zoomAndPan="magnify" viewBox="0 0 375 374.999991" height="500" preserveAspectRatio="xMidYMid meet" version="1.0"><defs><g/><clipPath id="038499074c"><path d="M 0 0 L 368.941406 0 L 368.941406 375 L 0 375 Z M 0 0 " clip-rule="nonzero"/></clipPath><clipPath id="600803bb36"><path d="M 181.441406 0 C 77.890625 0 -6.058594 83.945312 -6.058594 187.5 C -6.058594 291.054688 77.890625 375 181.441406 375 C 284.996094 375 368.941406 291.054688 368.941406 187.5 C 368.941406 83.945312 284.996094 0 181.441406 0 Z M 181.441406 0 " clip-rule="nonzero"/></clipPath><clipPath id="dba354ea27"><path d="M 0 0 L 368.941406 0 L 368.941406 375 L 0 375 Z M 0 0 " clip-rule="nonzero"/></clipPath><clipPath id="0860ee534d"><path d="M 181.441406 0 C 77.890625 0 -6.058594 83.945312 -6.058594 187.5 C -6.058594 291.054688 77.890625 375 181.441406 375 C 284.996094 375 368.941406 291.054688 368.941406 187.5 C 368.941406 83.945312 284.996094 0 181.441406 0 Z M 181.441406 0 " clip-rule="nonzero"/></clipPath><clipPath id="8180728955"><rect x="0" width="369" y="0" height="375"/></clipPath><clipPath id="be6621a15b"><rect x="0" width="289" y="0" height="375"/></clipPath></defs><g clip-path="url(#038499074c)"><g clip-path="url(#600803bb36)"><g transform="matrix(1, 0, 0, 1, 0, 0)"><g clip-path="url(#8180728955)"><g clip-path="url(#dba354ea27)"><g clip-path="url(#0860ee534d)"><path fill="#d9d9d9" d="M -6.058594 0 L 368.941406 0 L 368.941406 375 L -6.058594 375 Z M -6.058594 0 " fill-opacity="1" fill-rule="nonzero"/></g></g></g></g></g></g><g transform="matrix(1, 0, 0, 1, 21, 0)"><g clip-path="url(#be6621a15b)"><g fill="#000000" fill-opacity="1"><g transform="translate(0.270911, 269.144832)"><g><path d="M 18.453125 0 L 18.453125 -157.796875 L 72.90625 -157.796875 L 72.90625 -141.1875 L 73.515625 -141.1875 C 87.660156 -155.332031 102.734375 -162.40625 118.734375 -162.40625 C 130.210938 -162.40625 140.972656 -160.046875 151.015625 -155.328125 C 161.066406 -150.617188 168.660156 -143.34375 173.796875 -133.5 C 189.785156 -152.769531 207.210938 -162.40625 226.078125 -162.40625 C 242.890625 -162.40625 257.34375 -157.6875 269.4375 -148.25 C 281.539062 -138.820312 287.59375 -124.0625 287.59375 -103.96875 L 287.59375 0 L 233.15625 0 L 233.15625 -89.203125 C 233.15625 -97.609375 230.847656 -104.628906 226.234375 -110.265625 C 221.617188 -115.910156 214.695312 -118.734375 205.46875 -118.734375 C 197.46875 -118.734375 191.363281 -116.320312 187.15625 -111.5 C 182.957031 -106.6875 180.65625 -100.894531 180.25 -94.125 L 180.25 0 L 125.8125 0 L 125.8125 -89.203125 C 125.8125 -97.609375 123.503906 -104.628906 118.890625 -110.265625 C 114.273438 -115.910156 107.351562 -118.734375 98.125 -118.734375 C 89.71875 -118.734375 83.410156 -116.117188 79.203125 -110.890625 C 75.003906 -105.660156 72.90625 -99.457031 72.90625 -92.28125 L 72.90625 0 Z M 18.453125 0 "/></g></g></g></g></g></svg>